<?xml version="1.0" encoding="UTF-8" standalone="no"?>
<svg
   xmlns:dc="http://purl.org/dc/elements/1.1/"
   xmlns:cc="http://creativecommons.org/ns#"
   xmlns:rdf="http://www.w3.org/1999/02/22-rdf-syntax-ns#"
   xmlns:svg="http://www.w3.org/2000/svg"
   xmlns="http://www.w3.org/2000/svg"
   xmlns:sodipodi="http://sodipodi.sourceforge.net/DTD/sodipodi-0.dtd"
   xmlns:inkscape="http://www.inkscape.org/namespaces/inkscape"
   width="121.677pt"
   height="49pt"
   viewBox="0 0 121.677 49"
   version="1.2"
   id="svg40"
   sodipodi:docname="logo.svg"
   inkscape:version="0.92.1 r15371">
  <metadata
     id="metadata44">
    <rdf:RDF>
      <cc:Work
         rdf:about="">
        <dc:format>image/svg+xml</dc:format>
        <dc:type
           rdf:resource="http://purl.org/dc/dcmitype/StillImage" />
        <dc:title></dc:title>
      </cc:Work>
    </rdf:RDF>
  </metadata>
  <sodipodi:namedview
     pagecolor="#ffffff"
     bordercolor="#666666"
     borderopacity="1"
     objecttolerance="10"
     gridtolerance="10"
     guidetolerance="10"
     inkscape:pageopacity="0"
     inkscape:pageshadow="2"
     inkscape:window-width="1920"
     inkscape:window-height="1017"
     id="namedview42"
     showgrid="false"
     inkscape:zoom="1.7690278"
     inkscape:cx="81.118001"
     inkscape:cy="32.666667"
     inkscape:window-x="-8"
     inkscape:window-y="-8"
     inkscape:window-maximized="1"
     inkscape:current-layer="svg40" />
  <defs
     id="defs5">
    <clipPath
       id="clip1">
      <path
         d="M 112 29 L 121.675781 29 L 121.675781 44 L 112 44 Z M 112 29 "
         id="path2" />
    </clipPath>
  </defs>
  <g
     id="surface54">
    <path
       style=" stroke:none;fill-rule:nonzero;fill:rgb(100%,100%,100%);fill-opacity:1;"
       d="M 2.53125 18.339844 C 2.320313 18.765625 2.042969 19.164063 1.617188 19.558594 L 6.835938 19.558594 C 6.40625 19.164063 6.132813 18.765625 5.917969 18.339844 C 5.675781 17.730469 5.585938 16.964844 5.585938 15.5625 L 5.585938 9.917969 L 15.476563 9.917969 L 15.476563 15.5625 C 15.476563 16.964844 15.386719 17.730469 15.140625 18.339844 C 14.929688 18.765625 14.652344 19.164063 14.226563 19.558594 L 19.445313 19.558594 C 19.015625 19.164063 18.742188 18.765625 18.527344 18.339844 C 18.285156 17.730469 18.191406 16.964844 18.191406 15.5625 L 18.191406 3.996094 C 18.191406 2.59375 18.285156 1.832031 18.527344 1.21875 C 18.742188 0.792969 19.015625 0.398438 19.445313 0 L 14.226563 0 C 14.652344 0.398438 14.929688 0.792969 15.140625 1.21875 C 15.386719 1.832031 15.476563 2.59375 15.476563 3.996094 L 15.476563 8.542969 L 5.585938 8.542969 L 5.585938 3.996094 C 5.585938 2.59375 5.675781 1.832031 5.917969 1.21875 C 6.132813 0.792969 6.40625 0.398438 6.835938 0 L 1.617188 0 C 2.042969 0.398438 2.320313 0.792969 2.53125 1.21875 C 2.777344 1.832031 2.867188 2.59375 2.867188 3.996094 L 2.867188 15.5625 C 2.867188 16.964844 2.777344 17.730469 2.53125 18.339844 "
       id="path7" />
    <path
       style=" stroke:none;fill-rule:nonzero;fill:rgb(100%,100%,100%);fill-opacity:1;"
       d="M 23.28125 16.386719 C 23.28125 14.25 25.84375 13.058594 28.527344 12.753906 L 28.527344 14.128906 C 28.527344 15.347656 28.316406 16.324219 27.890625 16.90625 C 27.339844 17.757813 26.421875 18.339844 25.292969 18.339844 C 24.136719 18.339844 23.28125 17.605469 23.28125 16.386719 M 28.660156 18.078125 C 28.855469 19.367188 29.710938 20.015625 30.714844 20.015625 C 32.035156 20.015625 32.527344 18.765625 32.527344 18.765625 C 31.988281 18.835938 31.59375 18.683594 31.324219 18.363281 C 30.871094 17.835938 30.878906 17.019531 30.878906 15.234375 L 30.878906 10.953125 C 30.878906 7.71875 28.835938 6.347656 25.996094 6.347656 C 24.226563 6.347656 22.457031 7.046875 21.359375 7.75 L 21.359375 10.921875 C 22.335938 8.941406 23.984375 7.660156 25.753906 7.660156 C 27.523438 7.660156 28.527344 8.96875 28.527344 10.863281 L 28.527344 11.472656 C 28.527344 11.472656 26.699219 11.777344 24.988281 12.328125 C 22.640625 13.058594 20.808594 14.492188 20.808594 16.691406 C 20.808594 18.828125 22.671875 20.078125 24.410156 20.078125 C 26.257813 20.078125 27.640625 19.039063 28.660156 18.078125 "
       id="path9" />
    <path
       style=" stroke:none;fill-rule:nonzero;fill:rgb(100%,100%,100%);fill-opacity:1;"
       d="M 56.390625 16.265625 C 56.390625 14.402344 55.019531 13.121094 53.460938 12.328125 L 51.386719 11.257813 C 50.5 10.800781 49.984375 10.3125 49.984375 9.308594 C 49.984375 8.359375 50.867188 7.660156 52.089844 7.660156 C 53.675781 7.660156 55.019531 8.695313 55.839844 10.222656 L 55.839844 7.230469 C 54.742188 6.710938 53.402344 6.347656 52.027344 6.347656 C 49.800781 6.347656 47.878906 7.71875 47.878906 9.886719 C 47.878906 11.65625 48.855469 12.722656 50.289063 13.488281 L 52.363281 14.554688 C 53.402344 15.105469 54.164063 15.777344 54.164063 16.90625 C 54.164063 18.035156 53.066406 18.734375 51.691406 18.734375 C 49.769531 18.734375 48.210938 17.269531 47.449219 15.714844 L 47.449219 19.101563 C 48.578125 19.621094 50.011719 20.046875 51.597656 20.046875 C 54.253906 20.046875 56.390625 18.550781 56.390625 16.265625 "
       id="path11" />
    <path
       style=" stroke:none;fill-rule:nonzero;fill:rgb(100%,100%,100%);fill-opacity:1;"
       d="M 63.285156 7.691406 C 65.238281 7.691406 66.15625 9.277344 66.15625 11.566406 L 60.082031 11.566406 C 60.449219 9.246094 61.609375 7.691406 63.285156 7.691406 M 68.625 15.867188 C 67.375 17.726563 65.910156 18.675781 64.140625 18.675781 C 61.515625 18.675781 59.992188 16.324219 59.992188 13.03125 L 59.992188 12.785156 L 68.992188 12.785156 C 68.992188 8.757813 66.976563 6.347656 63.4375 6.347656 C 59.929688 6.347656 57.398438 9.488281 57.398438 13.089844 C 57.398438 16.964844 59.808594 20.046875 63.652344 20.046875 C 65.453125 20.046875 67.191406 19.5 68.625 18.550781 Z M 68.625 15.867188 "
       id="path13" />
    <path
       style=" stroke:none;fill-rule:nonzero;fill:rgb(100%,100%,100%);fill-opacity:1;"
       d="M 71.308594 10.527344 L 71.308594 15.5625 C 71.308594 16.964844 71.21875 17.726563 70.972656 18.339844 C 70.789063 18.765625 70.484375 19.164063 70.058594 19.558594 L 74.910156 19.558594 C 74.484375 19.164063 74.179688 18.765625 73.996094 18.339844 C 73.71875 17.726563 73.660156 16.964844 73.660156 15.5625 L 73.660156 12.753906 C 73.660156 10.285156 74.695313 8.511719 76.617188 8.511719 C 77.65625 8.511719 78.480469 9.152344 78.96875 9.824219 L 78.96875 6.378906 C 76.160156 6.378906 74.664063 7.597656 73.660156 8.757813 L 73.660156 6.222656 L 69.875 7.71875 C 70.882813 8.085938 71.308594 8.421875 71.308594 10.527344 "
       id="path15" />
    <path
       style=" stroke:none;fill-rule:nonzero;fill:rgb(100%,100%,100%);fill-opacity:1;"
       d="M 2.625 24.527344 C 2.898438 25.136719 2.960938 25.902344 2.960938 27.304688 L 2.960938 42.867188 C 2.960938 46.132813 1.746094 48.117188 0 48.964844 L 0 49 C 3.601563 49 5.707031 46.316406 5.707031 42.867188 L 5.707031 27.304688 C 5.707031 25.902344 5.796875 25.136719 6.039063 24.527344 C 6.222656 24.101563 6.53125 23.703125 6.957031 23.308594 L 1.707031 23.308594 C 2.136719 23.703125 2.441406 24.101563 2.625 24.527344 "
       id="path17" />
    <path
       style=" stroke:none;fill-rule:nonzero;fill:rgb(100%,100%,100%);fill-opacity:1;"
       d="M 14.765625 42.011719 C 12.296875 42.011719 10.769531 39.691406 10.769531 36.550781 C 10.769531 33.375 12.296875 31.027344 14.765625 31.027344 C 17.269531 31.027344 18.765625 33.316406 18.765625 36.457031 C 18.765625 39.632813 17.238281 42.011719 14.765625 42.011719 M 14.796875 29.652344 C 11.132813 29.652344 8.144531 32.371094 8.144531 36.582031 C 8.144531 40.761719 11.070313 43.355469 14.765625 43.355469 C 18.402344 43.355469 21.421875 40.667969 21.421875 36.457031 C 21.421875 32.277344 18.464844 29.652344 14.796875 29.652344 "
       id="path19" />
    <path
       style=" stroke:none;fill-rule:nonzero;fill:rgb(100%,100%,100%);fill-opacity:1;"
       d="M 35.183594 38.867188 L 35.183594 34.71875 C 35.183594 31.820313 33.59375 29.652344 30.878906 29.652344 C 28.867188 29.652344 27.3125 30.875 26.273438 31.972656 L 26.273438 29.53125 L 22.488281 31.027344 C 23.496094 31.394531 23.921875 31.730469 23.921875 33.835938 L 23.921875 38.867188 C 23.921875 40.273438 23.863281 41.035156 23.585938 41.644531 C 23.40625 42.074219 23.097656 42.46875 22.671875 42.867188 L 27.523438 42.867188 C 27.097656 42.46875 26.792969 42.074219 26.609375 41.644531 C 26.363281 41.035156 26.273438 40.273438 26.273438 38.867188 L 26.273438 35.96875 C 26.273438 33.40625 27.707031 31.605469 29.964844 31.605469 C 31.765625 31.605469 32.863281 33.042969 32.863281 35.207031 L 32.863281 38.867188 C 32.863281 40.273438 32.773438 41.035156 32.527344 41.644531 C 32.316406 42.074219 32.039063 42.46875 31.582031 42.867188 L 36.433594 42.867188 C 36.007813 42.46875 35.730469 42.074219 35.519531 41.644531 C 35.273438 41.035156 35.183594 40.273438 35.183594 38.867188 "
       id="path21" />
    <path
       style=" stroke:none;fill-rule:nonzero;fill:rgb(100%,100%,100%);fill-opacity:1;"
       d="M 43.542969 30.996094 C 45.496094 30.996094 46.410156 32.582031 46.410156 34.871094 L 40.339844 34.871094 C 40.703125 32.550781 41.863281 30.996094 43.542969 30.996094 M 49.246094 36.09375 C 49.246094 32.066406 47.234375 29.652344 43.695313 29.652344 C 40.1875 29.652344 37.652344 32.796875 37.652344 36.398438 C 37.652344 40.273438 40.0625 43.355469 43.90625 43.355469 C 45.710938 43.355469 47.449219 42.804688 48.882813 41.859375 L 48.882813 39.175781 C 47.632813 41.035156 46.167969 41.980469 44.394531 41.980469 C 41.773438 41.980469 40.246094 39.632813 40.246094 36.335938 L 40.246094 36.09375 Z M 49.246094 36.09375 "
       id="path23" />
    <path
       style=" stroke:none;fill-rule:nonzero;fill:rgb(100%,100%,100%);fill-opacity:1;"
       d="M 56.65625 35.636719 L 54.582031 34.566406 C 53.699219 34.109375 53.179688 33.621094 53.179688 32.613281 C 53.179688 31.667969 54.0625 30.96875 55.285156 30.96875 C 56.871094 30.96875 58.214844 32.003906 59.039063 33.53125 L 59.039063 30.539063 C 57.941406 30.019531 56.597656 29.652344 55.222656 29.652344 C 52.996094 29.652344 51.074219 31.027344 51.074219 33.195313 C 51.074219 34.964844 52.050781 36.03125 53.484375 36.792969 L 55.558594 37.863281 C 56.597656 38.410156 57.359375 39.082031 57.359375 40.210938 C 57.359375 41.339844 56.261719 42.042969 54.886719 42.042969 C 52.964844 42.042969 51.410156 40.578125 50.648438 39.023438 L 50.648438 42.410156 C 51.777344 42.929688 53.210938 43.355469 54.796875 43.355469 C 57.453125 43.355469 59.585938 41.859375 59.585938 39.570313 C 59.585938 37.710938 58.214844 36.429688 56.65625 35.636719 "
       id="path25" />
    <path
       style=" stroke:none;fill-rule:nonzero;fill:rgb(100%,100%,100%);fill-opacity:1;"
       d="M 78.117188 32.582031 C 78.058594 34.199219 77.722656 35.726563 77.144531 37.070313 L 74.089844 33.253906 C 74.703125 32.765625 75.464844 32.582031 76.867188 32.582031 Z M 71.800781 41.308594 C 69.238281 41.308594 67.683594 39.417969 67.683594 36.976563 C 67.683594 35.054688 68.71875 33.53125 70 32.402344 L 75.617188 39.480469 C 74.578125 40.640625 73.265625 41.308594 71.800781 41.308594 M 73.9375 33.101563 L 71.773438 30.386719 C 70.644531 29.011719 70 27.945313 70 26.695313 C 70 25.289063 70.917969 24.3125 72.289063 24.3125 C 73.816406 24.3125 74.824219 25.441406 75.800781 26.695313 L 75.800781 23.613281 C 74.703125 23.277344 73.542969 23.03125 72.230469 23.03125 C 69.511719 23.03125 67.621094 25.078125 67.621094 27.210938 C 67.621094 28.832031 68.261719 30.140625 69.207031 31.394531 C 66.890625 32.859375 64.875 34.660156 64.875 37.769531 C 64.875 41.003906 67.316406 43.292969 70.613281 43.292969 C 72.902344 43.292969 74.855469 42.226563 76.441406 40.488281 C 77.996094 42.378906 78.425781 42.867188 78.425781 42.867188 L 82.03125 42.867188 L 78.058594 38.199219 C 78.972656 36.582031 79.675781 34.660156 80.101563 32.582031 L 83.214844 32.582031 L 84.171875 30.601563 L 75.433594 30.601563 Z M 73.9375 33.101563 "
       id="path27" />
    <path
       style=" stroke:none;fill-rule:nonzero;fill:rgb(100%,100%,100%);fill-opacity:1;"
       d="M 94.734375 32.003906 L 92.113281 30.476563 C 90.832031 29.746094 90.007813 28.738281 90.007813 27.121094 C 90.007813 25.566406 91.257813 24.285156 93.179688 24.285156 C 95.132813 24.285156 96.71875 25.441406 97.910156 27.335938 L 97.910156 23.765625 C 96.628906 23.246094 94.949219 22.820313 93.148438 22.820313 C 90.3125 22.820313 87.441406 24.742188 87.441406 27.914063 C 87.441406 30.476563 89 32.09375 90.738281 33.132813 L 93.546875 34.71875 C 95.042969 35.605469 96.292969 36.855469 96.292969 38.6875 C 96.292969 40.667969 94.554688 41.890625 92.417969 41.890625 C 89.914063 41.890625 88.054688 39.90625 86.925781 37.679688 L 86.925781 41.953125 C 88.328125 42.746094 90.21875 43.355469 92.324219 43.355469 C 95.894531 43.355469 98.855469 41.035156 98.855469 37.832031 C 98.855469 34.902344 96.902344 33.253906 94.734375 32.003906 "
       id="path29" />
    <g
       clip-path="url(#clip1)"
       clip-rule="nonzero"
       id="g33">
      <path
         style=" stroke:none;fill-rule:nonzero;fill:rgb(100%,100%,100%);fill-opacity:1;"
         d="M 118.75 35.636719 L 116.671875 34.566406 C 115.789063 34.109375 115.269531 33.621094 115.269531 32.613281 C 115.269531 31.667969 116.15625 30.96875 117.375 30.96875 C 118.960938 30.96875 120.304688 32.003906 121.128906 33.53125 L 121.128906 30.539063 C 120.03125 30.019531 118.6875 29.652344 117.316406 29.652344 C 115.085938 29.652344 113.164063 31.027344 113.164063 33.195313 C 113.164063 34.964844 114.140625 36.03125 115.574219 36.792969 L 117.648438 37.863281 C 118.6875 38.410156 119.449219 39.082031 119.449219 40.210938 C 119.449219 41.339844 118.351563 42.042969 116.976563 42.042969 C 115.054688 42.042969 113.5 40.578125 112.738281 39.023438 L 112.738281 42.410156 C 113.867188 42.929688 115.300781 43.355469 116.886719 43.355469 C 119.542969 43.355469 121.675781 41.859375 121.675781 39.570313 C 121.675781 37.710938 120.304688 36.429688 118.75 35.636719 "
         id="path31" />
    </g>
    <path
       style=" stroke:none;fill-rule:nonzero;fill:rgb(100%,100%,100%);fill-opacity:1;"
       d="M 33.746094 10.675781 L 33.746094 15.128906 C 33.746094 18.273438 35.394531 20.195313 38.203125 20.195313 C 40.125 20.195313 41.925781 18.792969 42.777344 17.875 L 43.296875 20.164063 L 46.46875 18.914063 C 45.160156 18.578125 44.824219 17.113281 44.824219 13.789063 L 44.824219 6.375 L 41.039063 7.867188 C 42.046875 8.234375 42.472656 8.570313 42.472656 10.675781 L 42.472656 14.308594 C 42.472656 16.871094 40.949219 18.425781 38.8125 18.425781 C 36.890625 18.425781 36.097656 16.808594 36.097656 14.582031 L 36.097656 6.375 L 32.3125 7.867188 C 33.320313 8.234375 33.746094 8.570313 33.746094 10.675781 "
       id="path35" />
    <path
       style=" stroke:none;fill-rule:nonzero;fill:rgb(100%,100%,100%);fill-opacity:1;"
       d="M 107.949219 37.433594 C 107.949219 38.65625 107.734375 39.632813 107.308594 40.210938 C 106.757813 41.066406 105.84375 41.644531 104.714844 41.644531 C 103.554688 41.644531 102.699219 40.914063 102.699219 39.691406 C 102.699219 37.558594 105.261719 36.367188 107.949219 36.0625 Z M 110.742188 41.671875 C 110.289063 41.144531 110.296875 40.328125 110.296875 38.539063 L 110.296875 34.261719 C 110.296875 31.027344 108.253906 29.652344 105.414063 29.652344 C 103.644531 29.652344 101.875 30.355469 100.777344 31.058594 L 100.777344 34.230469 C 101.753906 32.25 103.402344 30.964844 105.171875 30.964844 C 106.941406 30.964844 107.949219 32.277344 107.949219 34.171875 L 107.949219 34.78125 C 107.949219 34.78125 106.117188 35.085938 104.410156 35.636719 C 102.058594 36.367188 100.230469 37.800781 100.230469 40 C 100.230469 42.132813 102.089844 43.386719 103.828125 43.386719 C 105.675781 43.386719 107.058594 42.347656 108.082031 41.382813 C 108.277344 42.675781 109.128906 43.324219 110.136719 43.324219 C 111.457031 43.324219 111.945313 42.074219 111.945313 42.074219 C 111.40625 42.140625 111.011719 41.988281 110.742188 41.671875 "
       id="path37" />
  </g>
</svg>
